<svg width="56" height="56" viewBox="0 0 56 56" fill="none" xmlns="http://www.w3.org/2000/svg">
<circle cx="28" cy="28" r="28" fill="#03A9F4"/>
<path d="M19.6296 18H38.9023C40.755 18 42.1933 19.6269 41.9788 21.48L40.5232 34.0573L39.8004 40.0839C39.6886 41.0158 38.5046 41.3331 37.9475 40.5805L35.4126 37.1554H18.0978C16.2416 37.1554 14.8023 35.5227 15.0223 33.6667L16.5541 20.7491C16.74 19.1808 18.061 18 19.6296 18Z" fill="#FFE603"/>
<path fill-rule="evenodd" clip-rule="evenodd" d="M35.4125 37.1554H18.0978C16.2416 37.1554 14.8022 35.5227 15.0223 33.6667L16.554 20.7491C16.74 19.1808 18.0609 18 19.6295 18H38.9022C40.7549 18 42.1932 19.6269 41.9788 21.48L40.5231 34.0572L39.8003 40.0839C39.6885 41.0158 38.5045 41.3331 37.9475 40.5805L35.4125 37.1554ZM34.117 39.7545L35.8779 42.1336C37.8276 44.7679 41.9716 43.6572 42.3628 40.3955L43.0856 34.3689C43.0861 34.3653 43.0865 34.3617 43.0869 34.3581L44.5426 21.7808C44.9357 18.3835 42.2989 15.4009 38.9022 15.4009H19.6295C16.7538 15.4009 14.332 17.5656 13.9911 20.441L12.4593 33.3585C12.0559 36.7611 14.6947 39.7545 18.0978 39.7545H34.117Z" fill="white"/>
<path d="M34.4101 22.7277H23.4445L23.1605 25.2145H34.1262L34.4101 22.7277Z" fill="#03A9F4"/>
<path d="M33.459 30.2269H22.4933L22.2094 32.7137H33.1751L33.459 30.2269Z" fill="#03A9F4"/>
<path d="M30.1243 29.0263H22.6779L22.9618 26.5394H30.4082L30.1243 29.0263Z" fill="#03A9F4"/>
</svg>
